# xmcd CD database file
#
# Track frame offsets:
#	150
#	19938
#	66669
#	137981
#
# Disc length: 3065 seconds
#
# Revision: 0
# Processed by: cddbd v1.4PL0 Copyright (c) Steve Scherf et al.
# Submitted via: CDex 1.50beta9
#
DISCID=3c0bf704
DTITLE=Tapscott Simmons - Among friends
DYEAR=1995
DGENRE=Jazz
TTITLE0=Milestones
TTITLE1=Body and soul
TTITLE2=So what
TTITLE3=Caravan
EXTD=YEAR: 1995
EXTT0=
EXTT1=
EXTT2=
EXTT3=
PLAYORDER=
